<svg width="24" height="24" viewBox="0 0 24 24" fill="none" xmlns="http://www.w3.org/2000/svg">
<path d="M18.4688 22.5002C18.3109 22.5008 18.1569 22.4516 18.0286 22.3596L12 17.989L5.97142 22.3596C5.84262 22.453 5.68745 22.5031 5.52835 22.5025C5.36924 22.5019 5.21444 22.4507 5.08632 22.3564C4.95821 22.262 4.86342 22.1294 4.81566 21.9776C4.7679 21.8258 4.76964 21.6628 4.82064 21.5121L7.17189 14.5479L1.07814 10.369C0.946143 10.2786 0.846521 10.1483 0.793828 9.99724C0.741134 9.84617 0.73813 9.68221 0.785256 9.52932C0.832381 9.37642 0.927165 9.2426 1.05576 9.14741C1.18435 9.05222 1.34002 9.00065 1.50001 9.00023H9.01783L11.2866 2.0182C11.3354 1.86746 11.4308 1.73607 11.559 1.64289C11.6872 1.5497 11.8415 1.49951 12 1.49951C12.1585 1.49951 12.3129 1.5497 12.441 1.64289C12.5692 1.73607 12.6646 1.86746 12.7135 2.0182L14.9822 9.00257H22.5C22.6602 9.00249 22.8162 9.05371 22.9452 9.14871C23.0742 9.24372 23.1693 9.37753 23.2168 9.53054C23.2642 9.68355 23.2614 9.84773 23.2087 9.99903C23.1561 10.1503 23.0564 10.2808 22.9242 10.3713L16.8281 14.5479L19.178 21.5102C19.2161 21.6229 19.2268 21.7431 19.2092 21.8608C19.1917 21.9785 19.1464 22.0903 19.0771 22.187C19.0078 22.2837 18.9165 22.3626 18.8107 22.417C18.705 22.4715 18.5877 22.5 18.4688 22.5002Z" fill="#FFC107"/>
</svg>
